<svg id="Layer_1" data-name="Layer 1" xmlns="http://www.w3.org/2000/svg" viewBox="0 0 1535.87 2296.86"><defs><style>.cls-1{fill:#311f20;}.cls-2{fill:#514042;}.cls-3{fill:#fff;}</style></defs><path class="cls-1" d="M1499.88,964.37l.21-.4c.32-.84.68-1.67,1-2.51C1501.36,960.24,1501.09,960.2,1499.88,964.37Z"/><path class="cls-1" d="M1518.41,923.69A283.6,283.6,0,0,1,1534,884.58c.5-1,1-2,1.57-3a79.48,79.48,0,0,1,.32-20.11c-6.43-1.08-12.5-4-16.52-8.63l-1-1.16h-3.18a512,512,0,0,1-57.81-3.11,320.57,320.57,0,0,1-34.59-5.72c-26.79,1.83-53.49,5.49-80.57,5.22-67.37-.65-134.57-9.63-202.14-2.78-30.21,3.06-52.62-11.72-68.88-37.42q-51.4-81.29-104.12-161.76c-58.81-89.93-113.25-181.77-137.71-288.22-4.67-20.32-13.46-39.73-20.9-59.36C760.81,172.76,685.34,73,557.68,17.21c-59-25.76-111-24.4-160.54,16.39-46.39,38.22-78.26,87.63-97.6,143.74C269.34,265,236.82,352.2,227.45,445.61c-1.64,16.31-4.62,33.29-11.1,48.16C130.33,691,62.67,893.46,31.48,1107.39c-13.37,91.67-39.36,181.69-29.16,275.86,3.9,36,4.42,72.43,9.63,108.21,2.52,17.25,5.54,44,29.56,40.47,17.85-2.67,32.59,6.75,50.83,2.66,16.46-3.68,36.3,6.1,36.92,31.49.32,13.08,3.62,26.24,6.83,39.05,3.49,13.95,7.42,30.4,25.15,30.58,15.85.17,19.46-15.7,24.94-27.63,12.55-27.33,21.29-56.61,41.58-87,2.31,20.63,3.89,34.7,5.46,48.77,22.9,205.47,62.89,408.36,92.94,612.76,4.14,28.19,8.59,55.13-20.68,73.82-7.7,4.92-12.51,13.78-8.38,23.12,4.79,10.84,15.7,10.95,25.79,10.74,34.38-.69,68.2-4.61,101.22-15.22,16.22-5.22,23-13.89,22.27-31.35-2.42-59.6-2.31-119.33-5.6-178.88-9.81-177.69-24.8-354.94-47.6-531.51-2.78-21.57-7.41-44.21,2.12-68.54,13.08,11.42,16.19,24.56,21.29,36.56,7.77,18.32,15.21,36.9,28.11,52.41,25.49,30.63,48.53,27.7,64.85-8,8.26-18.06,16.05-36.36,25.07-54,3.88-7.59,8.91-17.73,18.44-17.13,10.26.64,11.36,12.29,14.25,20.26,9.86,27.21,20.24,54.1,43.64,73,22.74,18.39,39.86,15.41,54.06-10.27,8.83-16,15.58-33.13,25.11-53.77,2.72,7.87,4.21,10.55,4.55,13.37,23.53,197.44,54.17,394.23,53.14,593.89A900.2,900.2,0,0,0,759.48,2263c3,18.11,10.43,32,30.9,32.76,43.1,1.72,86.26,2.5,128.94-5.09,15.52-2.76,32.36-8.69,32.75-27.34.38-17.93-17.17-22.78-30.7-25-39.5-6.39-52.47-30.59-52.48-67.62,0-109.55-11.56-218.46-19.67-327.56-7.3-98.29-9.25-196.41,6.6-294.36,2.47-15.3-2.63-32.53,15.9-38.58,21.18-6.93,25,13.76,32.32,25.77,15,24.61,29.58,49.37,49.13,70.65,8.77,9.55,17.57,22.63,32.94,17.34,17.77-6.12,14.76-22.79,13.71-36.85-4-52.9-6.69-106-13.17-158.59-16.77-136.29-6.26-274.1-24.51-410.31-5.11-38.15-4.75-77-7.37-124.19,25.66,29.89,44.91,52.53,64.42,75,18.49,21.26,40.26,37.65,68,45.33,104.13,28.87,211,36,318.25,40.1,22.46.85,43.77-4.14,58.69-29.68v2.2c15.13-29.85,27.5-61.11,41.64-91.51C1508.2,930.06,1512.93,926.13,1518.41,923.69Z"/><path class="cls-2" d="M801.89,1607.05c-21.75-37-27.14-73.36-40-106.87-8.07-21.08-10.23-49.93-38.87-52.12-27.76-2.11-41.7,21.88-54,43-8.31,14.24-14.65,29.73-20.79,45.09-8.48,21.24-19.07,17.69-31,3.6-14.68-17.26-20.72-38.76-29-59.23-6.13-15.21-11.06-33.31-31.25-34.65-18.81-1.24-29.43,13.29-39.42,26.63-13.39,17.9-21.39,38.61-29,59.38-7.18,19.62-16,18-27,3-14-19-20.55-41.49-30.25-62.5-7.54-16.36-15.53-32.93-36.67-33.88-21.3-1-35.07,12.19-45.18,28.82-16.82,27.65-24.65,59-34.48,89.43-1.27,3.94-4.06,7.39-7.11,12.76-17.23-20.85-20.78-45.31-29.44-67.51-6.6-16.92-6.91-40.67-29.92-43.34-25.66-3-30.53,22.13-39.19,38.77-16.13,31-29.94,63.18-48.09,94.55-13.1-62.62-21.86-126.69-12-188.51,24.24-151.76,44-304,57.84-456.86,10.85-119.92,12.57-240.73,25.25-360.41,10.42-98.33,20.37-197.38,57.07-291.47,13.05-33.45,18.85-70.27,31.36-104.49,19.27-52.7,47.9-99.52,90.65-136.65,33.77-29.31,71.29-36.16,114.19-20.89q154.7,55.08,226.76,201.83c65.78,134,102.36,277.74,132.81,422.56,40.3,191.64,62.88,385.93,65.64,582,1.33,94.14,12.27,187.45,18.67,281.14,1.41,20.7,2.92,41.39,4.91,69.58-25.9-23.45-37.46-48.21-51.51-71.07-11.1-18.07-21.54-37.46-47.32-35.25-25.41,2.18-39.22,20.12-47.56,41.12C818.26,1549.16,811.86,1575,801.89,1607.05Z"/><path class="cls-2" d="M1355,873.49c-28.37,38.35-22.82,47.19,41.51,69.69-12.84,17.4-50,14.19-43.46,44.23,5.5,25.36,36.62,23.93,59.57,41.8-81.07-.93-155.34-8-229.24-18.93-24-3.54-47.36-10.85-71.26-15-33.37-5.84-58.25-23.87-80.34-48.72-27.58-31-49.22-67.64-85.29-91.16-5.44-3.54-6.05-15.9-7.2-24.41-10.71-79.78-21.84-159.47-37.59-240.17,13.23,20.3,26.53,40.55,39.68,60.9,36.59,56.61,73.47,113,109.53,170,21.53,34,51.18,50.24,91.59,48C1212.06,865.91,1281.52,870.35,1355,873.49Z"/><path class="cls-2" d="M198.85,600.63c-2.68,165.17-9.57,328.28-31.93,490.2-10.85,78.6-15,158-30.75,236.1-5.66,28.06-24.75,42.21-40.75,60.6-6.08,7-13.18,5.77-20.09-.81-5.48-5.21-13-13.78-18.24-12.88-41.65,7.21-31.24-22.32-31.69-43.59-1.92-90.43,29.1-176,39.56-264.48,18.48-156.19,74.37-301.35,125.85-448C192.89,611.86,196.14,606.34,198.85,600.63Z"/><path class="cls-3" d="M261.75,1535.88c8.18,16.81,15.85,33.9,24.74,50.34,5.31,9.82,13,19.3,25.59,18s17.2-12.22,21.14-22.91c9.35-25.31,12.9-52.87,32.16-83.65,9.82,92.74,18.87,177.79,27.75,262.86.56,5.35.24,10.57-4.09,15.24-15.71,17-69.35,22.36-89.72,8.79-6.36-4.24-13.68-7.09-14.8-16.35C275.18,1690.73,259.83,1613.91,261.75,1535.88Z"/><path class="cls-3" d="M416.23,2052.06c0,37.91-1,68.86.33,99.72.88,20.89-6.47,30.81-27.85,30.6-18.44-.19-38,5.35-41.84-23.23-7.37-54.65-17.17-109-24.74-163.59-3.76-27.18,35.24-70.52,62.21-70,17,.31,24.84,10.1,25.56,27.72C411.35,1988.53,414.34,2023.74,416.23,2052.06Z"/><path class="cls-3" d="M773.17,2059.54c-1.6-36.31-2.89-72.63-4.94-108.91-1-18.3-3.77-37.35,23.35-36.39,21.64.76,39.57,9.67,40.77,33.79,2.23,45.06,10.89,89.62,8.91,135a500.89,500.89,0,0,0,2.44,72.55c1.5,14.74-1.11,25.93-13,34.75-14.08,10.49-29.55,26.54-46.24,20.37-16-5.91-8.86-27.59-9.38-42.19-1.3-36.29-.43-72.66-.43-109Z"/><path class="cls-3" d="M717.11,1478.37c25,26.75,28,60.47,41.08,90.24,12.32,28.17,10.85,68.26,56.7,70.81,8,.45,4.66,10.85,4.73,16.79.37,30.82-.22,61.66.52,92.47.7,29.61-19.12,32.56-41.37,34.68-23.57,2.25-28.35-9.07-30.51-30.58-8.16-81-18.91-161.72-28.55-242.57C718.44,1499.64,718,1489,717.11,1478.37Z"/><path class="cls-3" d="M1381.33,982.38c18.93-9.38,33.82-16.25,48.2-24.06,8.13-4.41,13.92-11.8,12.43-21.6-1.52-10-9.54-13.94-18.72-16.26-17.82-4.5-37.39-3.28-54.84-16.55,40.86-38,88.65-41.25,141.58-33.66-8.66,15.1-31.76,10.37-35.74,26.1-3.73,14.75-3.13,30.6-4.38,46C1464.83,1004.34,1441.83,1015.88,1381.33,982.38Z"/><path class="cls-3" d="M39.59,1491.65c-10.7-21.55-8.41-41.62-5.08-60.77,3.26-18.71,4.81-44.71,34.35-16.28,17.15,16.5,34.11-2.84,53-12.7v108.58c-6.87,2.53-11.2-2.16-10.78-7.59,2.85-36.57-23.73-39.41-48.85-42.31C41.71,1458.21,47.45,1478.21,39.59,1491.65Z"/><path class="cls-3" d="M346.67,1826.69c24.24.61,33.52,14,34.87,35.66,1.72,27.57-16.46,43.05-38.27,44.85-24.62,2-29-23.88-31.15-42.3C309.4,1841.47,325.17,1829.66,346.67,1826.69Z"/><path class="cls-3" d="M909.55,2268.18c-32.77,1.6-65.54,3.5-98.34,4.62-12.07.41-25.67.55-27.23-16.4-1.45-15.83,14.15-9.62,20.63-14.94,44.57-36.57,69.79,16.8,105.93,18.57Z"/><path class="cls-3" d="M814.7,1849.62c-.28,19.61-8.65,30.54-27.58,31.24-19.25.71-24.67-12.19-24.26-27.9.43-16.56,1.67-35.68,24.11-36.24C808.51,1816.18,812,1834.18,814.7,1849.62Z"/><path class="cls-3" d="M340.21,2264.59c11.76-25.74,11.86-56.91,49-44,7.38,2.56,21.31-11.85,22.07,6.8.53,13-3.19,27.54-18.87,30.91S360.39,2262.29,340.21,2264.59Z"/><path class="cls-1" d="M710.44,340.83C706.11,445.9,675.29,542.24,613.06,628a199.4,199.4,0,0,1-55.49,51.66c-42.28,26.74-87.92,23.15-125.58-9.3C259.05,521.32,280.18,289,391.11,140.66c66.31-88.68,202.11-79.72,259,10.8C686.78,209.79,715.69,269.37,710.44,340.83Z"/><path class="cls-1" d="M432.77,1002.67c.36-5,.06-7.34.75-9.36,5.12-15-9.12-44.31,14.56-42.68,19.59,1.34,6.35,29.84,9.05,46.06a8.33,8.33,0,0,1-.07,3.3c-3.58,14.74,6.24,41.88-14.41,40.93C418.88,1039.82,436.1,1014.26,432.77,1002.67Z"/><path class="cls-1" d="M321,1162.84c5.71-15.42-9.12-40.1,10.11-41.67,23.63-1.93,14,25.26,15.29,38.87,1.54,16.12,12.16,46-12.57,46C311.81,1206,330.06,1176,321,1162.84Z"/><path class="cls-1" d="M599.48,974c3.22-13.41-9.4-35.16,9.23-37.16,19.25-2.07,14.83,21,14.74,33.61-.14,18.25,14.45,50.16-8,51.66C590.56,1023.81,607.15,990.12,599.48,974Z"/><path class="cls-1" d="M356.9,982c0-.51,0,4.94,0,10.38,0,8-1.15,17-10.11,18.08-11.79,1.38-13.21-9.17-14.24-17.85A277.5,277.5,0,0,1,330.23,960c0-10.06-4.6-25.22,11.34-25.53,15-.29,12,15.23,13.92,25.24C356.48,965,356.24,970.58,356.9,982Z"/><path class="cls-1" d="M706.55,751.38c0,6.59.61,13.26-.16,19.75-.82,6.83-4.34,14.49-12.06,12.62C675.66,779.21,682,762.66,682,750.84c0-13-8.21-30.14,10.2-37.46,7.16-2.84,11.78,4.81,12.87,11.71,1.38,8.66,1.58,17.51,2.29,26.28Z"/><path class="cls-1" d="M846.66,1080.56c4.5-10.66-9-35.21,12.06-35.24,19.83,0,10.08,24.18,12.59,37.9a37.91,37.91,0,0,1-.17,13c-1.73,9.85,2.09,25.46-14.24,23.9-12.68-1.21-9.57-14.83-10.19-24.21C846.43,1091.58,846.66,1087.21,846.66,1080.56Z"/><path class="cls-1" d="M412.27,796.53c-5.77,14.52,4.68,44.29-17.07,42.07-23.61-2.42-4.24-28.91-7-44.41-.76-4.17.3-8.69.59-13,.51-7.9,1.69-16.84,11.22-17.21,12.55-.49,11.5,10.46,12.24,18.91C412.59,787.18,412.27,791.56,412.27,796.53Z"/><path class="cls-1" d="M421.58,1204.51c1.8-12.7-5.24-28.59,9.3-30.55,18.28-2.46,14.71,16.18,15.5,26.49,1.15,14.82,12.65,40.13-8.52,41.7C416.54,1243.73,428,1215.8,421.58,1204.51Z"/><path class="cls-1" d="M276.2,724.89c2.19-12.06-4.12-30.19,11.71-30.66,19.17-.58,13.61,18.74,13.48,30.44-.14,12,4.57,32.23-11.91,32.45C267.41,757.41,280.53,735.46,276.2,724.89Z"/><path class="cls-1" d="M795.68,663.51c-2.81,11.77,5.07,32.23-14.11,30.94-17.43-1.18-10.27-21.29-10.88-33.29-.56-11-5.4-29.65,11.12-29.43C800.28,632,792.59,651.86,795.68,663.51Z"/><path class="cls-1" d="M269.49,1236.4c-2.81,11.79,4.38,32.07-12.67,32.84-18.86.85-12.76-19.31-12.78-31.16,0-12-4.83-31.37,13.52-31.37C274.15,1206.7,267.75,1225.05,269.49,1236.4Z"/><path class="cls-1" d="M556.79,1143.64c-2.76,11.2,4.54,30.68-12.78,28.95-19.45-1.95-11-22.71-12.13-35.57-.9-10.15-3.72-27.59,10.15-27C562.94,1111,553.31,1131.73,556.79,1143.64Z"/><path class="cls-1" d="M649.61,1236.18c-3.53,12.42,4.41,32.35-14.38,34.9-14.81,2-13.58-14.8-11.59-24.64,2.76-13.62-5.52-35.93,14.15-38.31C655.13,1206,647,1225.61,649.61,1236.18Z"/><path class="cls-1" d="M826.22,1296.68c2.94-9.82-5.46-28.41,13.09-26.89,15.52,1.26,10.86,19,11,30,.13,10.56,6,28.57-12.56,27.07C821.29,1325.57,828.86,1307.82,826.22,1296.68Z"/><path class="cls-1" d="M760.2,928.8c-.11,10.05-2.5,20.34-11.63,17.44C728.3,939.82,735,919,730.8,904.17c-2.09-7.42,1.67-18.33,11.23-15.48C763,894.94,752.05,917.34,760.2,928.8Z"/><path class="cls-1" d="M868.4,866.74c-.55,9.34,0,22-12.25,18.92-16.25-4-12.1-21.43-14.54-33.64-1.8-9,0-20.8,12.1-18C870.66,838,865.4,855.22,868.4,866.74Z"/><path class="cls-1" d="M525.51,839.91c-3.69,12.49,1.47,29.86-15.39,33-11.67,2.2-13.24-10-10.76-18.44,3.57-12.18-4.43-32.06,16.19-34C527.55,819.45,524.73,832.4,525.51,839.91Z"/><path class="cls-1" d="M729.3,1098.27c-.38,9.81,1.08,22.75-10.08,22-19.21-1.31-12.48-19.89-15-31.44-1.84-8.34-.88-21.33,10-20.48C733.16,1069.82,726.57,1087.74,729.3,1098.27Z"/><path class="cls-1" d="M351.5,1306.15c10.48,1.43,12.61,8.35,12.5,16.6-.12,9-.66,18.64-12.91,18.43-8.34-.14-9.87-7.52-10-14.25C341,1318.17,341.1,1309.15,351.5,1306.15Z"/><path class="cls-3" d="M490,422.25c-10.84-19.19-3.46-35.07-7-49.7-2-8.55-4.23-18.81-14.8-19.47-11.82-.74-12.85,9.94-14.19,18.6-2.48,16-4.53,32.12-6.72,47.85-10.94-.42-10.67-6.88-10.92-11.87-1.46-30.14-.88-61.07-47.34-47-10.18,3.09-17.47-7.51-23.06-16-15.27-23.31-21.7-49.43-14.38-75.85C366.05,216.94,394,173,431.45,133.5,476.9,85.59,586.93,104.77,619,150.8c20.94,30.09,42.59,60.35,52.85,95.13,14.18,48.08.31,93.76-27.33,134.32-14.61,21.45-31.44,14.62-46.48-2-9-10-12.84-29.8-31.14-24.28-16.14,4.87-13.94,23.13-17.9,36.53-2.72,9.21,3.61,27.25-13.41,24.14-13.53-2.48-6.26-18.38-6.69-28.6-.48-11.39,6.89-28.64-9.3-30.8-18.28-2.44-16.85,16.15-18.79,28.83C499,395.77,499.35,408.06,490,422.25Z"/><path class="cls-3" d="M429.5,494.69c0-.72.23-8.47-.05-16.19-.45-12.5,1.85-21.1,17.73-21.09,17.91,0,14.24,11.72,15.56,22.5,1.67,13.62-11.32,37.28,9.74,38.26,18.86.88,10.34-24.94,15.51-38.35,2.84-7.35-2.49-20.93,10.75-20.19,13.07.74,7,13.43,8.59,21.26,3,14.84-12.16,40.84,8.88,42.45,22.59,1.73,10.85-25.63,14.29-40,2.33-9.72,1-21,15.07-21.34,17.16-.45,15.53,12.63,15,23.37-1,19.83-3,39.6-4.7,59.39C553,578.5,535.72,592.06,501,590.38c-54.92-2.66-64.85-10.16-69.62-65.5C430.67,517.18,430.38,509.43,429.5,494.69Z"/><path class="cls-1" d="M512.44,286.67c-15.74,6-13.84,38.83-35.49,26.56-18.54-10.51-1.77-30.35,1.22-45.25,5-24.81,11.79-49.52,24.46-71.91,5.07-8.94,11.48-17.62,23.38-14,10.52,3.19,10.17,13.1,10.19,22.11.07,25.41-.49,50.74,5.58,75.87,3,12.48,6.63,30.44-9.62,34.15C514.43,318.24,517.52,297.15,512.44,286.67Z"/><path class="cls-1" d="M618,252.34c.36,13.41.54,26.24-17.07,26.07-16.58-.17-18.66-12.67-18.56-25.18.09-12.95-.6-30.19,16-31.31C618.61,220.54,615.28,240.09,618,252.34Z"/><path class="cls-1" d="M405.65,249.73c2.46-13.42.72-32.22,20.07-31.76,20.63.5,14.26,21.36,16.89,33.58,2.87,13.38-5.77,24.55-19.37,24.79C406.84,276.63,407.62,261.49,405.65,249.73Z"/></svg>